<?xml version="1.0" standalone="no"?>
<!DOCTYPE svg PUBLIC "-//W3C//DTD SVG 1.1//EN" "https://www.w3.org/Graphics/SVG/1.1/DTD/svg11.dtd">

<svg width="800" height="600" version="1.1" xmlns="http://www.w3.org/2000/svg">
	<!-- Fundo branco -->
	<rect width="100%" height="100%" fill="white"/>
	<ellipse stroke="black" stroke-width="1" fill="none" cx="215.5" cy="188.5" rx="30" ry="30"/>
	<text x="210.5" y="194.5" font-family="Times New Roman" font-size="20">1</text>
	<ellipse stroke="black" stroke-width="1" fill="none" cx="215.5" cy="188.5" rx="24" ry="24"/>
	<ellipse stroke="black" stroke-width="1" fill="none" cx="420.5" cy="188.5" rx="30" ry="30"/>
	<text x="415.5" y="194.5" font-family="Times New Roman" font-size="20">2</text>
	<ellipse stroke="black" stroke-width="1" fill="none" cx="420.5" cy="188.5" rx="24" ry="24"/>
	<ellipse stroke="black" stroke-width="1" fill="none" cx="361.5" cy="346.5" rx="30" ry="30"/>
	<text x="356.5" y="352.5" font-family="Times New Roman" font-size="20">3</text>
	<ellipse stroke="black" stroke-width="1" fill="none" cx="361.5" cy="346.5" rx="24" ry="24"/>
	<polygon stroke="black" stroke-width="1" points="245.5,188.5 390.5,188.5"/>
	<polygon fill="black" stroke-width="1" points="390.5,188.5 382.5,183.5 382.5,193.5"/>
	<text x="313.5" y="209.5" font-family="Times New Roman" font-size="20">0</text>
	<path stroke="black" stroke-width="1" fill="none" d="M 207.787,159.63 A 22.5,22.5 0 1 1 233.724,164.817"/>
	<text x="229.5" y="112.5" font-family="Times New Roman" font-size="20">1</text>
	<polygon fill="black" stroke-width="1" points="233.724,164.817 242.994,163.068 236.214,155.718"/>
	<path stroke="black" stroke-width="1" fill="none" d="M 407.275,161.703 A 22.5,22.5 0 1 1 433.725,161.703"/>
	<text x="415.5" y="112.5" font-family="Times New Roman" font-size="20">0</text>
	<polygon fill="black" stroke-width="1" points="433.725,161.703 442.473,158.17 434.382,152.292"/>
	<path stroke="black" stroke-width="1" fill="none" d="M 427.981,217.48 A 126.677,126.677 0 0 1 386.145,329.516"/>
	<polygon fill="black" stroke-width="1" points="386.145,329.516 395.453,327.983 388.846,320.477"/>
	<text x="428.5" y="292.5" font-family="Times New Roman" font-size="20">1</text>
	<path stroke="black" stroke-width="1" fill="none" d="M 350.374,318.74 A 109.857,109.857 0 0 1 393.902,202.173"/>
	<polygon fill="black" stroke-width="1" points="393.902,202.173 384.481,202.671 390.221,210.86"/>
	<text x="336.5" y="251.5" font-family="Times New Roman" font-size="20">0</text>
</svg>
